<svg xmlns="http://www.w3.org/2000/svg" width="920" height="923" fill="none"><path fill="#010101" d="M919.77 450.647c.23 7.041.23 13.728.23 20.884-1.11 2.874-.234 5.418-.516 8.307v6.908c-.059 10.142-.697 19.822-1.274 29.934-.445 2.043-.976 3.635-.916 5.741a17.8 17.8 0 0 1-.291 2.425c-1.688 12.156-4.057 23.786-6.127 35.845.012.633.001.883-.077 1.5-.46 1.723-1.509 2.834-1.601 4.669a20.766 20.766 0 0 1-.364 2.071c-1.416 5.509-2.865 10.648-3.934 16.231-.05.572-.081.799-.2 1.357-.492 1.366-1.239 2.249-1.512 3.703a27.932 27.932 0 0 1-.463 2.014c-1.333 3.713-2.344 7.156-3.327 10.99-1.187 3.615-2.331 6.861-3.463 10.501a236.745 236.745 0 0 0-5.969 15.9c-3.25 7.483-5.865 14.837-9.475 22.154-.566 1.166-1.024 1.989-1.425 3.22-.696 1.864-1.465 3.313-2.261 5.139a958.933 958.933 0 0 1-15.45 29.789c-1.526 2.357-2.756 4.482-3.971 6.993-.464.601-.742.931-1.211 1.514-.308.429-.428.601-.726 1.033-1.06 1.412-1.792 2.649-2.353 4.324-.191.47-.277.652-.526 1.087-.55.693-.996 1.076-1.571 1.731-.296.375-.414.527-.709.906-.296.384-.415.539-.859 1.197-.422.689-.518.873-.754 1.346-1.872 3.443-3.776 6.496-5.838 9.85-1.448 1.855-2.786 3.369-4.047 5.366-2.337 2.903-4.145 5.76-6.125 8.92-13.215 18.2-27.598 34.998-42.875 50.981-9.519 9.959-19.815 19.184-30.286 28.172a503.61 503.61 0 0 1-24.746 19.911c-3.136 2.048-6.038 3.825-8.978 6.15-1.931 1.416-3.645 2.551-5.444 4.154-9.74 6.425-19.16 12.704-29.378 18.375-5.247 2.979-10.106 5.924-15.478 8.684a309.956 309.956 0 0 0-16.516 8.482c-4.147 1.83-8.069 3.288-12.116 5.312-1.502.729-2.739 1.223-4.193 2.018-1.049.535-1.842.847-2.923 1.273-.865.307-1.45.475-2.288.821-1.176.515-2.09.881-3.292 1.324a52.33 52.33 0 0 0-1.11.423 32.45 32.45 0 0 0-1.112.489c-.658.313-1.037.496-1.713.831-.504.247-.711.342-1.24.572-10.06 4.051-20.007 7.379-30.332 10.769-.603.185-.848.252-1.468.391-9.04 2.829-17.85 5.069-27.002 7.559-9.716 2.466-19.19 4.168-29.005 6.174-.912.143-1.434.2-2.344.286-1.163.094-1.921.249-3.049.556-3.751.839-7.176 1.296-10.959 2.088-6.357.719-12.313 1.3-18.712 1.84-7.271.258-14.097.931-21.394.654h-7.057c-3.6.031-6.764-.069-10.291.286-5.053.229-9.743.229-14.898.229-3.492-1.102-6.628-.234-10.13-.516h-6.098c-11.675-.388-22.948-.123-34.529-2.008-3.842-.125-7.141-1.184-10.975-1.233-5.178-1.093-10.049-1.552-15.191-2.753-.655-.122-.917-.165-1.567-.293-7.15-1.921-14.154-2.665-21.265-4.682a30.505 30.505 0 0 1-2.943-.538c-1.056-.276-1.74-.522-2.809-.729a26.54 26.54 0 0 1-2.136-.47c-5.255-1.78-10.369-2.708-15.66-4.348-1.363-.097-2.341-.264-3.667-.588-4.202-2.258-8.46-3.318-12.94-4.821-.806-.272-1.262-.439-2.065-.723a595.154 595.154 0 0 1-43.988-17.743c-.532-.23-.74-.327-1.249-.58-.494-.261-.688-.367-1.742-.921-1.44-.714-2.029-.959-2.951-1.245-1.766-.641-3.151-1.34-4.841-2.194-10.008-5.65-20.016-10.585-29.931-16.405a14.188 14.188 0 0 1-1.683-1.122 20.055 20.055 0 0 0-1.625-1.108 39.168 39.168 0 0 1-1.154-.673c-4.234-2.616-8.169-5.071-12.286-7.863a22.837 22.837 0 0 1-1.112-.724c-.439-.32-.611-.451-1.299-.956-.696-.486-.876-.597-1.333-.862-2.183-1.116-3.926-2.337-5.944-3.712-.6-.424-.942-.664-1.557-1.061a25.179 25.179 0 0 1-1.075-.668c-.941-.705-1.551-1.31-2.475-2.054-4.168-2.888-7.863-5.876-12.176-8.577a125.114 125.114 0 0 0-7.352-5.947 120.218 120.218 0 0 0-7.943-6.094c-3.097-3.411-6.824-5.606-10.045-8.878-1.682-1.655-3.464-2.652-5.206-4.243-8.301-9.071-18.445-15.812-25.856-25.78-5.459-5.046-9.735-10.723-14.916-16.023-1.703-2.215-3.057-4.277-5.14-6.174-1.941-2.868-4.184-5.078-6.181-7.902-2.5-3.567-5.234-6.527-7.838-10.015-1.403-1.902-2.505-3.608-4.099-5.374-5.595-7.821-10.787-15.498-15.856-23.65-.25-.477-.348-.665-.747-1.387a14.762 14.762 0 0 0-.807-1.269c-.29-.399-.408-.558-.7-.953a17.3 17.3 0 0 0-1.58-1.808 6.039 6.039 0 0 1-.714-1.07c-2.114-4.927-5.161-8.946-7.768-13.61-3.204-5.996-6.648-11.473-9.592-17.604-.436-.898-.685-1.511-1.107-2.398-.417-.862-.669-1.446-1.106-2.292-.441-.838-.713-1.409-1.17-2.243-1.025-2.002-1.836-3.756-2.93-5.733-.83-1.676-1.51-3.062-2.24-4.793a28.373 28.373 0 0 0-2.133-4.922 102.91 102.91 0 0 1-2.115-4.466c-4.688-10.54-8.527-21.024-12.61-31.819-1.274-3.726-2.438-7.092-3.558-10.876-3.389-11.273-6.791-22.141-9.407-33.628a15.99 15.99 0 0 1-.492-2.236c-.189-1.358-.23-2.358-.694-3.664-.633-2.588-1.257-4.793-1.641-7.45-1.382-5.56-2.137-10.853-3.46-16.449-.52-3.757-.742-7.138-1.43-10.896C1.074 515.013.74 501.113.514 486.764v-6.108c-.03-3.268.066-6.106-.285-9.3C0 464.646 0 458.291 0 451.468c1.084-3.175.253-6.001.515-9.186v-6.048c.285-16.062.712-31.673 4.005-47.472.168-4.654.98-8.777 1.996-13.277 1.174-4.93 2.038-9.512 3.028-14.45.149-.845.242-1.322.444-2.132.282-.987.523-1.621.761-2.594.155-.738.255-1.155.45-1.872.276-.897.484-1.485.667-2.403.125-.723.213-1.136.395-1.857.26-.94.442-1.567.604-2.549.126-.8.213-1.259.391-2.073 2.389-10.185 5.758-19.707 8.588-29.766 1.101-2.743 1.798-5.244 2.925-7.948.415-.91.724-1.496 1.058-2.424.17-.513.24-.719.42-1.229.264-.714.41-1.126.637-1.866.144-.547.201-.769.351-1.327 4.146-11.172 8.542-21.864 13.505-32.706 1.257-3.145 2.782-5.769 4.191-8.822.773-1.443 1.426-2.569 2.11-4.031.616-1.167 1.154-2.023 1.943-3.735.567-1.125.752-1.462 1.065-2.059.215-.432.303-.605.527-1.037.316-.613.492-.969.78-1.614 1.03-2.222 1.98-4.14 3.088-6.355 5.949-10.399 11.777-20.477 18.218-30.593.862-1.486 1.707-2.571 2.57-4.049 2.462-3.615 5.042-6.73 7.344-10.456.311-.469.439-.655.76-1.118.32-.465.448-.651.767-1.12 2.086-2.843 4.07-5.339 6.069-8.248 1.407-1.932 2.514-3.66 4.058-5.492 7.251-9.634 15.108-18.326 22.738-27.65 1.521-1.538 2.868-2.764 4.334-4.357 3.394-3.55 6.974-6.451 9.868-10.475 1.029-1.412 2.039-2.369 3.366-3.499 5.169-3.712 8.905-8.433 13.489-12.759 1.222-1.202 2.234-2.126 3.393-3.394 9.509-8.216 18.756-16.213 28.833-23.733 2.526-1.612 4.665-3.17 6.817-5.258 2.594-2.35 5.569-3.592 8.203-5.904 3.943-2.856 7.881-5.122 11.707-8.152 1.139-.986 2.212-1.432 3.491-2.21 9.91-6.234 19.696-11.993 29.906-17.726 4.816-2.024 8.677-5.09 13.446-7.164 1.864-.853 3.419-1.579 5.219-2.502a10.197 10.197 0 0 1 1.662-.612c.443-.128.618-.178 1.046-.31a23.382 23.382 0 0 0 2.38-.952c.37-.193.517-.27.891-.455.533-.247.838-.39 1.367-.67.382-.22.538-.31.935-.53.747-.396 1.253-.663 2.013-1.117.461-.26.652-.36 1.144-.604 10.39-4.775 20.755-8.735 31.394-12.94.756-.259 1.192-.384 1.949-.587a31.595 31.595 0 0 0 1.869-.587c.504-.192.707-.267 1.218-.445 1.76-.549 3.233-.933 4.922-1.728 1.151-.549 2.022-.885 3.249-1.316 9.713-2.896 18.97-6.039 28.809-8.5a23.156 23.156 0 0 1 2.077-.455c.989-.173 1.645-.268 2.594-.537.716-.21 1.13-.307 1.854-.447.918-.176 1.527-.295 2.416-.59a18.34 18.34 0 0 1 1.845-.493c.96-.222 1.602-.378 2.56-.691 1.02-.296 1.722-.426 2.795-.605 5.402-1.302 10.563-1.962 15.944-3.513 3.431-.53 6.429-1.215 9.924-1.486 16.136-2.84 31.981-4.016 48.36-4.092h6.095c3.265-.03 6.101.066 9.292-.285C456.688 0 463.375 0 470.531 0c2.86 1.111 5.391.233 8.264.516h6.021c14.322.247 28.204.527 42.346 3.122 3.479.51 6.522 1.015 10.009 1.261 5.96 1.468 11.657 2.207 17.582 3.654.836.124 1.302.22 2.072.472.686.337.982.63 1.713.742.751-.327.955-.369 1.473-.409 1.151.126 1.913.478 2.988.888.9.321 1.512.505 2.478.657.792.12 1.248.207 2.057.395 12.3 2.88 24.072 6.278 36.068 10.281 1.635.328 2.813.824 4.363 1.407 12.197 4.217 23.897 8.667 35.707 13.852 5.488 2.175 10.23 5.097 15.753 7.17 1.42.594 2.441 1.195 3.84 1.819 3.412 1.767 6.597 3.209 9.901 5.173a612.222 612.222 0 0 1 30.464 17.466c.486.263.677.372 1.141.656.447.3.621.425 1.312.916.884.579 1.258.778 1.938 1.094 1.658.876 2.914 1.78 4.433 2.887 2.378 2.501 5.103 3.968 7.96 5.815 4.756 2.831 8.817 6.083 13.371 9.219.653.45 1.013.725 1.627 1.223 4.37 3.31 8.363 6.557 12.734 9.865 1.984 1.993 4.112 3.277 6.235 5.109 3.216 3.495 6.827 5.997 10.531 8.916 2.418 1.866 4.17 3.941 6.397 6.002 2.593 2.535 4.663 5.143 7.76 7.13 3.383 2.804 6.072 5.848 9.222 8.903 1.892 2.605 3.644 4.887 6.081 7.022 2.701 2.845 5.36 5.265 7.963 8.204 1.658 2.798 3.88 4.61 6.267 6.727 2.119 3.018 4.172 5.66 6.767 8.295 2.988 4.036 5.972 7.65 8.993 11.66 1.136 1.269 2.087 2.25 3.19 3.559 6.256 8.751 12.288 17.238 18.39 26.091.258.511.36.715.795 1.513 2.656 5.013 5.604 9.049 8.317 13.626.316.467.437.657.732 1.135a38.92 38.92 0 0 0 1.072 1.713c2.965 4.962 5.487 9.791 8.572 14.69 1.272 2.296 2.205 4.381 3.441 6.696 1.3 2.771 2.559 5.181 3.932 7.915.646 1.332 1.111 2.372 1.852 3.664a89.516 89.516 0 0 1 2.454 5.141c9.865 20.721 17.602 41.869 24.634 63.707.297.867.431 1.374.615 2.282 5.605 20.221 10.509 40.188 13.508 60.989.157.654.208.918.309 1.581.189 1.977.008 3.591.693 5.513.247.935.343 1.482.446 2.462 1.675 11.727 1.911 23.115 2.171 34.937v6.932c.028 2.965-.063 5.503.285 8.392Z"/><path fill="#FDDE58" d="M479.535 43.313c16.929.02 33.243 2.16 49.443 4.886 32.649 5.496 64.259 14.789 94.64 27.953 44.586 19.32 84.743 45.492 120.245 78.747 38.397 35.966 69.058 77.636 91.812 125.036 17.246 35.926 28.927 73.647 35.352 113.011 4.898 30.007 6.612 60.215 4.823 90.498-3.61 61.098-19.381 118.911-48.336 173.012-33.051 61.756-78.633 112.223-136.726 151.229-49.242 33.064-103.244 54.477-161.766 64.499-30.131 5.16-60.475 7.063-90.932 5.486-56.804-2.941-110.934-16.658-162.143-41.695-49.608-24.254-92.783-56.96-129.388-98.241-44.126-49.764-74.75-106.808-91.756-171.188-10.246-38.789-14.892-78.251-13.637-118.24 2.034-64.801 17.888-126.145 48.388-183.539 26.315-49.519 61.132-92.102 104.447-127.682 51.132-42.001 109.128-70.128 173.597-84.794 22.86-5.2 46.063-8.378 69.984-9.203 7.039.19 13.622-.119 20.21-.124 7.108-.006 14.204.205 21.743.35Z"/><path fill="#020201" d="M718.26 508.617c4.802 11.776 9.644 23.202 12.732 35.282 9.978 39.036 7.388 77.486-6.295 115.108-18.899 51.964-52.615 92.582-97.358 124.416-39.234 27.915-82.897 45.096-130.366 52.309-32.226 4.898-64.533 4.83-96.835-.518-74.753-12.376-133.297-50.936-178.858-110.374-32.774-42.757-54.101-91.102-68.272-142.815-4.126-15.054-7.551-30.259-10.062-45.666-.432-2.648-1.502-3.937-4.559-3.838-7.659.246-15.331-.012-22.995.131-2.563.048-3.506-.651-3.427-3.34.182-6.16.16-12.333.007-18.495-.059-2.417.717-3.332 3.11-3.066 1.316.146 2.663.025 3.996.025 196.815-.001 393.63 0 590.445-.004 1.999 0 3.998-.057 6.346-.336 1.489-.737 1.954.046 2.391 1.181ZM594.2 213.122c41.812-1.924 77.736 10.704 106.975 40.388 21.317 21.642 33.089 48.167 37.804 77.949 5.243 33.112 1.168 65.554-7.217 97.689-.82 3.145-2.668 3.107-5.097 3.103-22.499-.043-44.997-.026-67.496-.026-59.164 0-118.327-.057-177.49.123-4.146.012-5.764-1.242-6.583-5.059-5.308-24.758-9.222-49.651-7.689-75.095 2.221-36.857 12.973-70.436 38.766-97.886 21.868-23.273 48.934-36.517 80.63-40.321 2.307-.277 4.613-.567 7.397-.865ZM98.391 432.976c-5.48-18.995-8.859-37.901-10.535-57.125-2.097-24.041-1.068-47.898 5.347-71.23 9.541-34.702 28.044-63.034 60.734-80.052 41.457-21.582 91.941-14.317 126.858 17.439 23.637 21.498 36.889 48.6 43.199 79.47 7.057 34.522 3.963 68.716-3.554 102.742-.599 2.713-1.426 5.375-2.414 8.332-1.382 1.37-2.791.912-4.069.912-71.262.018-142.525.029-213.787.015-.5 0-.997-.054-1.779-.503Z"/><path fill="#871945" d="M360.283 798.712c-15.252-4.47-29.094-11.545-42.536-19.474-21.332-12.583-40.251-28.212-57.136-46.233-16.62-17.74-30.798-37.372-42.886-58.458-14.141-24.668-25.487-50.598-34.269-77.644-6.34-19.523-11.063-39.463-15.281-59.533-.62-2.95-.244-4.997 3.514-4.558.986.115 1.997.016 2.997.016 173.277 0 346.555.02 519.832-.106 4.856-.003 7.09 1.109 8.789 6.061 6.6 19.242 9.64 38.987 8.569 59.169-1.718 32.379-11.807 62.291-28.425 90.074-12.182 20.366-27.484 38.161-44.815 54.687-6.098-4.628-10.109-11.044-15.275-16.442-25.906-27.07-56.405-45.883-94.049-50.611-45.589-5.725-85.598 7.509-119.816 38.136-24.357 21.801-39.969 48.763-47.175 80.619-.332 1.467-.575 2.957-2.038 4.297Z"/><path fill="#FBC0DF" d="M360.279 799.172c6.718-36.962 24.84-67.323 53.406-91.145 21.117-17.609 45.484-28.747 72.858-33.13 39.489-6.323 75.437 2.656 108.186 24.924 16.923 11.507 31.702 25.456 43.562 42.699-19.821 18.109-41.698 32.971-65.811 44.34-31.106 14.666-63.817 23.572-98.175 26.336-5.476.44-10.933.796-16.877.803-4.838-.985-9.26-.345-14.03-.273-23.029.45-45.152-3.173-66.923-9.162-5.366-1.476-10.6-3.431-16.196-5.392Z"/><path fill="#FFFEFE" d="M576.29 241.047c24.452-5.603 47.92-3.996 71.275 5.544-20.845 12.006-31.394 29.29-26.323 53.1 4.138 19.428 17.218 31.744 36.633 35.659 21.271 4.289 38.271-3.62 51.047-21.686 3.108 8.198 4.964 16.388 5.967 24.667 2.636 21.748 1.612 43.383-2.75 64.889-.701 3.457-2.114 4.107-5.253 4.103-68.631-.074-137.262-.084-205.893.023-3.542.006-4.66-.908-5.289-4.519-5.04-28.962-5.817-57.824 2.968-86.174 12.068-38.944 37.693-64.457 77.618-75.606Z"/><path fill="#FEFEFD" d="M302.998 357.084c.303 16.326-1.562 31.975-3.933 47.594-.321 2.115-1.025 2.975-3.059 2.895-.998-.039-1.999-.003-2.999-.003-56.638 0-113.277-.032-169.915.07-3.848.007-5.663-.499-6.489-5.024-4.232-23.162-6.358-46.42-3.482-69.846 3.36-27.375 12.359-52.437 32.81-72.065 13.816-13.259 30.357-20.815 49.475-22.992 15.587-1.775 30.219 1.291 45.33 7.306-22.077 10.219-33.114 26.811-30.419 50.365 2.179 19.05 13.49 32.494 31.713 38.382 21.957 7.093 40.263.174 54.843-18.055 4.122 13.563 5.336 27.19 6.125 41.373Z"/></svg>